<svg width="16" height="14" viewBox="0 0 16 14" fill="none" xmlns="http://www.w3.org/2000/svg">
<path fill-rule="evenodd" clip-rule="evenodd" d="M11.0627 0C9.73515 0 8.46103 0.617983 7.62942 1.59455C6.79782 0.617983 5.5237 0 4.19618 0C1.84632 0 0 1.84632 0 4.19618C0 7.08011 2.594 9.42997 6.52316 13.0005L7.62942 14L8.73569 12.9929C12.6648 9.42997 15.2588 7.08011 15.2588 4.19618C15.2588 1.84632 13.4125 0 11.0627 0ZM7.70571 11.8637L7.62941 11.94L7.55312 11.8637C3.92151 8.57546 1.52587 6.40108 1.52587 4.19617C1.52587 2.67029 2.67029 1.52587 4.19617 1.52587C5.3711 1.52587 6.51552 2.28119 6.91988 3.32642H8.34658C8.74331 2.28119 9.88772 1.52587 11.0627 1.52587C12.5885 1.52587 13.733 2.67029 13.733 4.19617C13.733 6.40108 11.3373 8.57546 7.70571 11.8637Z" fill="#FF8C00"/>
</svg>
