<svg xmlns="http://www.w3.org/2000/svg" data-name="Layer 1" viewBox="0 0 32 32"><circle cx="22" cy="26" r="3" fill="#b6ffff"/><circle cx="14" cy="26" r="3" fill="#b6ffff"/><path fill="#89cecc" d="M27.99,9.16,27.18,14l-.34,2-.58,3.49a2.622,2.622,0,0,1-.23.75A2.961,2.961,0,0,1,23.31,22H12.68a3,3,0,0,1-2.96-2.48L9.1,16l-.35-2L7.16,5H5A1,1,0,0,1,5,3H8a.989.989,0,0,1,.98.83L9.72,8H27a1,1,0,0,1,.99,1.16Z"/><path fill="#13e4ea" d="M27.99,9.16,27.18,14l-.34,2-.58,3.49a2.622,2.622,0,0,1-.23.75,2.968,2.968,0,0,1-1.22.26H14.18a3,3,0,0,1-2.96-2.48L10.86,16l-.35-2L9.72,8H27a1,1,0,0,1,.99,1.16Z"/><path fill="#007da1" d="M18,22a1,1,0,0,1-1-1V9a1,1,0,0,1,2,0V21A1,1,0,0,1,18,22Z"/><path fill="#007da1" d="M26 16H10a1 1 0 010-2H26a1 1 0 010 2zM22 29a3 3 0 113-3A3 3 0 0122 29zm0-4a1 1 0 101 1A1 1 0 0022 25zM14 29a3 3 0 113-3A3 3 0 0114 29zm0-4a1 1 0 101 1A1 1 0 0014 25z"/><path fill="#007da1" d="M23.306,22H12.678a3,3,0,0,1-2.954-2.478L7.161,5H5A1,1,0,0,1,5,3H8a1,1,0,0,1,.984.826l2.708,15.348a1,1,0,0,0,.986.826H23.306a1,1,0,0,0,.986-.835L25.819,10H12a1,1,0,0,1,0-2H27a1,1,0,0,1,.986,1.165L26.265,19.493A2.991,2.991,0,0,1,23.306,22Z"/></svg>