<svg xmlns="http://www.w3.org/2000/svg" width="32" height="32" viewBox="0 0 32 32"><g transform="translate(0 -1020.362)"><circle cx="16" cy="1036.362" r="16" fill="#ffa40b" fill-rule="evenodd"/><path fill="#ff7712" fill-rule="evenodd" style="line-height:normal;text-indent:0;text-align:start;text-decoration-line:none;text-decoration-style:solid;text-decoration-color:#000;text-transform:none;block-progression:tb;isolation:auto;mix-blend-mode:normal" d="m 18.322266,31.814453 c 0.132351,-0.01398 0.264523,-0.0296 0.396484,-0.04687 0.525719,-0.09109 1.046552,-0.208428 1.560547,-0.351562 0.513942,-0.14257 1.020434,-0.310749 1.517578,-0.503907 0.497553,-0.192948 0.985142,-0.410668 1.460937,-0.652343 0.475235,-0.242342 0.938053,-0.508299 1.386719,-0.796875 0.448816,-0.288025 0.882952,-0.598308 1.300781,-0.929688 0.417713,-0.33133 0.818604,-0.683331 1.201172,-1.054687 0.383268,-0.372153 0.747657,-0.763268 1.091797,-1.171875 0.343234,-0.407468 0.665901,-0.831825 0.966797,-1.271485 0.301251,-0.440845 0.580247,-0.896493 0.835938,-1.365234 0.127615,-0.247448 0.24875,-0.498184 0.363281,-0.751953 l -6.533203,-6.533203 c 0.08843,-0.09681 0.13541,0.238745 0.130859,0.107701 l 6.393136,6.45452 c 0.025,-0.05 0.217153,-0.457274 0.24163,-0.507534 L 16.345703,8.1484375 C 16.250777,8.0525989 16.121217,7.999085 15.986328,8 c -0.13218,0.00117 -0.258543,0.05452 -0.351562,0.1484375 L 8.1425781,15.693359 c -0.4752924,0.472654 0.2363298,1.184277 0.7089844,0.708985 l 1.1562495,1.15625 0,5.941406 c 2.8e-5,0.276131 0.223869,0.499972 0.5,0.5 z" color="#000" font-family="sans-serif" font-weight="400" transform="translate(0 1020.362)"/><path fill="#fff" fill-rule="evenodd" d="m 15.986971,1028.3622 a 0.50103477,0.50103477 0 0 0 -0.351563,0.1484 l -7.4921873,7.545 a 0.50132954,0.50132954 0 1 0 0.7109375,0.707 l 1.1542968,-1.1621 0,8.2617 a 0.50005,0.50005 0 0 0 0.5,0.5 l 2.484375,0 6,0 2.515625,0 a 0.50005,0.50005 0 0 0 0.5,-0.5 l 0,-8.2285 1.121094,1.1289 a 0.50103477,0.50103477 0 0 0 0.355469,0.1465 0.50125155,0.50125155 0 0 0 0.0332,-1.002 l 0.175781,0 -7.347653,-7.3965 a 0.50103477,0.50103477 0 0 0 -0.359375,-0.1484 z m 0.0039,1.2129 5.017578,5.0527 0,8.7344 -2.015629,0 -0.984375,0 0,-4.5 a 0.50005,0.50005 0 0 0 -0.5,-0.5 l -3,0 a 0.50005,0.50005 0 0 0 -0.5,0.5 l 0,4.5 -1.015625,0 -1.984375,0 0,-8.7695 4.982422,-5.0176 z m 0.01757,2.7871 c -1.098647,0 -2,0.9014 -2,2 0,1.0987 0.901353,2 2,2 1.098647,0 2,-0.9013 2,-2 0,-1.0986 -0.901353,-2 -2,-2 z m 0,1 c 0.558207,0 1,0.4418 1,1 0,0.5582 -0.441793,1 -1,1 -0.558207,0 -1,-0.4418 -1,-1 0,-0.5582 0.441793,-1 1,-1 z m -1,6 2,0 0,4 -2,0 0,-4 z" color="#000" font-family="sans-serif" font-weight="400" overflow="visible" style="line-height:normal;text-indent:0;text-align:start;text-decoration-line:none;text-decoration-style:solid;text-decoration-color:#000;text-transform:none;block-progression:tb;isolation:auto;mix-blend-mode:normal"/></g></svg>